<mxfile host="Electron" agent="Mozilla/5.0 (Macintosh; Intel Mac OS X 10_15_7) AppleWebKit/537.36 (KHTML, like Gecko) draw.io/28.0.6 Chrome/138.0.7204.100 Electron/37.2.3 Safari/537.36" version="28.0.6">
  <diagram name="Page-1" id="mJG8isY6PhUyBDZnboph">
    <mxGraphModel dx="3112" dy="1802" grid="1" gridSize="10" guides="1" tooltips="1" connect="1" arrows="1" fold="1" page="1" pageScale="1" pageWidth="850" pageHeight="1100" math="0" shadow="0">
      <root>
        <mxCell id="0" />
        <mxCell id="1" parent="0" />
        <mxCell id="HJ6WZek75ZiEFssTKiRI-2" value="" style="swimlane;startSize=0;strokeWidth=3;fillColor=#d80073;fontColor=#ffffff;strokeColor=light-dark(#A50040,#FFCCFF);" vertex="1" parent="1">
          <mxGeometry x="40" y="80" width="100" height="60" as="geometry" />
        </mxCell>
        <mxCell id="HJ6WZek75ZiEFssTKiRI-8" value="Vertical Container" style="text;html=1;align=center;verticalAlign=middle;whiteSpace=wrap;rounded=0;" vertex="1" parent="HJ6WZek75ZiEFssTKiRI-2">
          <mxGeometry x="10" y="15" width="80" height="30" as="geometry" />
        </mxCell>
        <mxCell id="HJ6WZek75ZiEFssTKiRI-17" value="" style="swimlane;startSize=0;strokeWidth=3;fillColor=#d80073;fontColor=#ffffff;strokeColor=light-dark(#A50040,#66FFFF);" vertex="1" parent="1">
          <mxGeometry x="-90" y="80" width="100" height="60" as="geometry" />
        </mxCell>
        <mxCell id="HJ6WZek75ZiEFssTKiRI-18" value="Horizontal Container" style="text;html=1;align=center;verticalAlign=middle;whiteSpace=wrap;rounded=0;" vertex="1" parent="HJ6WZek75ZiEFssTKiRI-17">
          <mxGeometry x="10" y="15" width="80" height="30" as="geometry" />
        </mxCell>
        <mxCell id="HJ6WZek75ZiEFssTKiRI-23" value="" style="swimlane;startSize=0;strokeWidth=3;fillColor=#d80073;fontColor=#ffffff;strokeColor=light-dark(#A50040,#CCFF99);" vertex="1" parent="1">
          <mxGeometry x="170" y="80" width="100" height="60" as="geometry" />
        </mxCell>
        <mxCell id="HJ6WZek75ZiEFssTKiRI-24" value="Object" style="text;html=1;align=center;verticalAlign=middle;whiteSpace=wrap;rounded=0;fillColor=#CCFF99;fillStyle=hatch;" vertex="1" parent="HJ6WZek75ZiEFssTKiRI-23">
          <mxGeometry x="10" y="15" width="80" height="30" as="geometry" />
        </mxCell>
        <mxCell id="HJ6WZek75ZiEFssTKiRI-25" value="" style="rounded=0;whiteSpace=wrap;html=1;fillColor=none;strokeWidth=3;strokeColor=#66FFFF;" vertex="1" parent="1">
          <mxGeometry x="-90" y="240" width="770" height="560" as="geometry" />
        </mxCell>
        <mxCell id="HJ6WZek75ZiEFssTKiRI-26" value="" style="rounded=0;whiteSpace=wrap;html=1;fillColor=none;strokeWidth=4;strokeColor=#FFCCFF;" vertex="1" parent="1">
          <mxGeometry x="-70" y="255" width="100" height="530" as="geometry" />
        </mxCell>
        <mxCell id="HJ6WZek75ZiEFssTKiRI-27" value="" style="rounded=0;whiteSpace=wrap;html=1;fillColor=none;strokeWidth=3;strokeColor=#FFCCFF;" vertex="1" parent="1">
          <mxGeometry x="50" y="250" width="620" height="530" as="geometry" />
        </mxCell>
        <mxCell id="HJ6WZek75ZiEFssTKiRI-28" value="" style="rounded=0;whiteSpace=wrap;html=1;fillColor=none;strokeWidth=3;strokeColor=#66FFFF;" vertex="1" parent="1">
          <mxGeometry x="70" y="270" width="580" height="60" as="geometry" />
        </mxCell>
        <mxCell id="HJ6WZek75ZiEFssTKiRI-29" value="" style="rounded=0;whiteSpace=wrap;html=1;fillColor=none;strokeWidth=3;strokeColor=#66FFFF;" vertex="1" parent="1">
          <mxGeometry x="70" y="350" width="580" height="410" as="geometry" />
        </mxCell>
        <mxCell id="HJ6WZek75ZiEFssTKiRI-31" value="" style="rounded=0;whiteSpace=wrap;html=1;fillColor=none;strokeWidth=3;strokeColor=#FFCCFF;" vertex="1" parent="1">
          <mxGeometry x="95" y="375" width="215" height="355" as="geometry" />
        </mxCell>
        <mxCell id="HJ6WZek75ZiEFssTKiRI-32" value="" style="rounded=0;whiteSpace=wrap;html=1;strokeWidth=3;fillColor=none;strokeColor=#FFCCFF;" vertex="1" parent="1">
          <mxGeometry x="340" y="375" width="300" height="355" as="geometry" />
        </mxCell>
        <mxCell id="HJ6WZek75ZiEFssTKiRI-33" value="" style="rounded=0;whiteSpace=wrap;html=1;fillColor=none;strokeWidth=3;strokeColor=#66FFFF;" vertex="1" parent="1">
          <mxGeometry x="350" y="425" width="280" height="80" as="geometry" />
        </mxCell>
        <mxCell id="HJ6WZek75ZiEFssTKiRI-35" value="" style="rounded=0;whiteSpace=wrap;html=1;fillColor=none;strokeWidth=3;strokeColor=#66FFFF;" vertex="1" parent="1">
          <mxGeometry x="350" y="590" width="280" height="80" as="geometry" />
        </mxCell>
        <mxCell id="HJ6WZek75ZiEFssTKiRI-36" value="" style="rounded=0;whiteSpace=wrap;html=1;fillColor=none;strokeWidth=3;strokeColor=#66FFFF;" vertex="1" parent="1">
          <mxGeometry x="720" y="240" width="830" height="560" as="geometry" />
        </mxCell>
        <mxCell id="HJ6WZek75ZiEFssTKiRI-37" value="" style="rounded=0;whiteSpace=wrap;html=1;fillColor=none;strokeWidth=4;strokeColor=#FFCCFF;" vertex="1" parent="1">
          <mxGeometry x="740" y="250" width="100" height="530" as="geometry" />
        </mxCell>
        <mxCell id="HJ6WZek75ZiEFssTKiRI-38" value="" style="rounded=0;whiteSpace=wrap;html=1;fillColor=none;strokeWidth=3;strokeColor=#FFCCFF;" vertex="1" parent="1">
          <mxGeometry x="870" y="250" width="660" height="530" as="geometry" />
        </mxCell>
        <mxCell id="HJ6WZek75ZiEFssTKiRI-48" value="" style="rounded=0;whiteSpace=wrap;html=1;fillColor=none;strokeWidth=3;strokeColor=#66FFFF;" vertex="1" parent="1">
          <mxGeometry x="890" y="270" width="610" height="100" as="geometry" />
        </mxCell>
        <mxCell id="HJ6WZek75ZiEFssTKiRI-49" value="" style="rounded=0;whiteSpace=wrap;html=1;fillColor=#CCFF99;strokeColor=#CCFF99;strokeWidth=3;fillStyle=hatch;" vertex="1" parent="1">
          <mxGeometry x="890" y="390" width="610" height="370" as="geometry" />
        </mxCell>
        <mxCell id="HJ6WZek75ZiEFssTKiRI-52" value="" style="rounded=0;whiteSpace=wrap;html=1;fillColor=#CCFF99;strokeColor=#CCFF99;strokeWidth=3;fillStyle=hatch;" vertex="1" parent="1">
          <mxGeometry x="-45" y="310" width="50" height="50" as="geometry" />
        </mxCell>
        <mxCell id="HJ6WZek75ZiEFssTKiRI-54" value="" style="rounded=0;whiteSpace=wrap;html=1;fillColor=#CCFF99;strokeColor=#CCFF99;strokeWidth=3;fillStyle=hatch;" vertex="1" parent="1">
          <mxGeometry x="-45" y="380" width="50" height="50" as="geometry" />
        </mxCell>
        <mxCell id="HJ6WZek75ZiEFssTKiRI-55" value="" style="rounded=0;whiteSpace=wrap;html=1;fillColor=#CCFF99;strokeColor=#CCFF99;strokeWidth=3;fillStyle=hatch;" vertex="1" parent="1">
          <mxGeometry x="-45" y="450" width="50" height="50" as="geometry" />
        </mxCell>
        <mxCell id="HJ6WZek75ZiEFssTKiRI-59" value="" style="rounded=0;whiteSpace=wrap;html=1;fillColor=#CCFF99;strokeColor=#CCFF99;strokeWidth=3;fillStyle=hatch;" vertex="1" parent="1">
          <mxGeometry x="-45" y="570" width="50" height="50" as="geometry" />
        </mxCell>
        <mxCell id="HJ6WZek75ZiEFssTKiRI-60" value="" style="rounded=0;whiteSpace=wrap;html=1;fillColor=#CCFF99;strokeColor=#CCFF99;strokeWidth=3;fillStyle=hatch;" vertex="1" parent="1">
          <mxGeometry x="-45" y="640" width="50" height="50" as="geometry" />
        </mxCell>
        <mxCell id="HJ6WZek75ZiEFssTKiRI-61" value="" style="rounded=0;whiteSpace=wrap;html=1;fillColor=#CCFF99;strokeColor=#CCFF99;strokeWidth=3;fillStyle=hatch;" vertex="1" parent="1">
          <mxGeometry x="-45" y="710" width="50" height="50" as="geometry" />
        </mxCell>
        <mxCell id="HJ6WZek75ZiEFssTKiRI-62" value="" style="rounded=0;whiteSpace=wrap;html=1;fillColor=#CCFF99;strokeColor=#CCFF99;strokeWidth=3;fillStyle=hatch;" vertex="1" parent="1">
          <mxGeometry x="90" y="280" width="40" height="40" as="geometry" />
        </mxCell>
        <mxCell id="HJ6WZek75ZiEFssTKiRI-64" value="" style="rounded=0;whiteSpace=wrap;html=1;fillColor=#CCFF99;strokeColor=#CCFF99;strokeWidth=3;fillStyle=hatch;" vertex="1" parent="1">
          <mxGeometry x="520" y="280" width="40" height="40" as="geometry" />
        </mxCell>
        <mxCell id="HJ6WZek75ZiEFssTKiRI-65" value="" style="rounded=0;whiteSpace=wrap;html=1;fillColor=#CCFF99;strokeColor=#CCFF99;strokeWidth=3;fillStyle=hatch;" vertex="1" parent="1">
          <mxGeometry x="590" y="280" width="40" height="40" as="geometry" />
        </mxCell>
        <mxCell id="HJ6WZek75ZiEFssTKiRI-66" value="" style="rounded=0;whiteSpace=wrap;html=1;fillColor=#CCFF99;strokeColor=#CCFF99;strokeWidth=3;fillStyle=hatch;" vertex="1" parent="1">
          <mxGeometry x="370" y="440" width="40" height="40" as="geometry" />
        </mxCell>
        <mxCell id="HJ6WZek75ZiEFssTKiRI-67" value="" style="rounded=0;whiteSpace=wrap;html=1;fillColor=#CCFF99;strokeColor=#CCFF99;strokeWidth=3;fillStyle=hatch;" vertex="1" parent="1">
          <mxGeometry x="460" y="440" width="40" height="40" as="geometry" />
        </mxCell>
        <mxCell id="HJ6WZek75ZiEFssTKiRI-68" value="" style="rounded=0;whiteSpace=wrap;html=1;fillColor=#CCFF99;strokeColor=#CCFF99;strokeWidth=3;fillStyle=hatch;" vertex="1" parent="1">
          <mxGeometry x="560" y="440" width="40" height="40" as="geometry" />
        </mxCell>
        <mxCell id="HJ6WZek75ZiEFssTKiRI-69" value="" style="rounded=0;whiteSpace=wrap;html=1;fillColor=#CCFF99;strokeColor=#CCFF99;strokeWidth=3;fillStyle=hatch;" vertex="1" parent="1">
          <mxGeometry x="405" y="610" width="40" height="40" as="geometry" />
        </mxCell>
        <mxCell id="HJ6WZek75ZiEFssTKiRI-70" value="" style="rounded=0;whiteSpace=wrap;html=1;fillColor=#CCFF99;strokeColor=#CCFF99;strokeWidth=3;fillStyle=hatch;" vertex="1" parent="1">
          <mxGeometry x="520" y="610" width="40" height="40" as="geometry" />
        </mxCell>
        <mxCell id="HJ6WZek75ZiEFssTKiRI-71" value="" style="rounded=0;whiteSpace=wrap;html=1;fillColor=#CCFF99;strokeColor=#CCFF99;strokeWidth=3;fillStyle=hatch;" vertex="1" parent="1">
          <mxGeometry x="110" y="450" width="170" height="70" as="geometry" />
        </mxCell>
        <mxCell id="HJ6WZek75ZiEFssTKiRI-72" value="" style="rounded=0;whiteSpace=wrap;html=1;fillColor=#CCFF99;strokeColor=#CCFF99;strokeWidth=3;fillStyle=hatch;" vertex="1" parent="1">
          <mxGeometry x="110" y="540" width="170" height="70" as="geometry" />
        </mxCell>
        <mxCell id="HJ6WZek75ZiEFssTKiRI-73" value="" style="rounded=0;whiteSpace=wrap;html=1;fillColor=#CCFF99;strokeColor=#CCFF99;strokeWidth=3;fillStyle=hatch;" vertex="1" parent="1">
          <mxGeometry x="110" y="630" width="170" height="70" as="geometry" />
        </mxCell>
        <mxCell id="HJ6WZek75ZiEFssTKiRI-74" value="" style="rounded=0;whiteSpace=wrap;html=1;fillColor=#CCFF99;strokeColor=#CCFF99;strokeWidth=3;fillStyle=hatch;" vertex="1" parent="1">
          <mxGeometry x="770" y="310" width="50" height="50" as="geometry" />
        </mxCell>
        <mxCell id="HJ6WZek75ZiEFssTKiRI-75" value="" style="rounded=0;whiteSpace=wrap;html=1;fillColor=#CCFF99;strokeColor=#CCFF99;strokeWidth=3;fillStyle=hatch;" vertex="1" parent="1">
          <mxGeometry x="770" y="375" width="50" height="50" as="geometry" />
        </mxCell>
        <mxCell id="HJ6WZek75ZiEFssTKiRI-76" value="" style="rounded=0;whiteSpace=wrap;html=1;fillColor=#CCFF99;strokeColor=#CCFF99;strokeWidth=3;fillStyle=hatch;" vertex="1" parent="1">
          <mxGeometry x="770" y="450" width="50" height="50" as="geometry" />
        </mxCell>
        <mxCell id="HJ6WZek75ZiEFssTKiRI-77" value="" style="rounded=0;whiteSpace=wrap;html=1;fillColor=#CCFF99;strokeColor=#CCFF99;strokeWidth=3;fillStyle=hatch;" vertex="1" parent="1">
          <mxGeometry x="770" y="570" width="50" height="50" as="geometry" />
        </mxCell>
        <mxCell id="HJ6WZek75ZiEFssTKiRI-78" value="" style="rounded=0;whiteSpace=wrap;html=1;fillColor=#CCFF99;strokeColor=#CCFF99;strokeWidth=3;fillStyle=hatch;" vertex="1" parent="1">
          <mxGeometry x="770" y="640" width="50" height="50" as="geometry" />
        </mxCell>
        <mxCell id="HJ6WZek75ZiEFssTKiRI-79" value="" style="rounded=0;whiteSpace=wrap;html=1;fillColor=#CCFF99;strokeColor=#CCFF99;strokeWidth=3;fillStyle=hatch;" vertex="1" parent="1">
          <mxGeometry x="770" y="710" width="50" height="50" as="geometry" />
        </mxCell>
        <mxCell id="HJ6WZek75ZiEFssTKiRI-80" value="" style="rounded=0;whiteSpace=wrap;html=1;fillColor=#CCFF99;strokeColor=#CCFF99;strokeWidth=3;fillStyle=hatch;" vertex="1" parent="1">
          <mxGeometry x="910" y="295" width="50" height="50" as="geometry" />
        </mxCell>
        <mxCell id="HJ6WZek75ZiEFssTKiRI-81" value="" style="rounded=0;whiteSpace=wrap;html=1;fillColor=#CCFF99;strokeColor=#CCFF99;strokeWidth=3;fillStyle=hatch;" vertex="1" parent="1">
          <mxGeometry x="1010" y="295" width="50" height="50" as="geometry" />
        </mxCell>
        <mxCell id="HJ6WZek75ZiEFssTKiRI-82" value="" style="rounded=0;whiteSpace=wrap;html=1;fillColor=#CCFF99;strokeColor=#CCFF99;strokeWidth=3;fillStyle=hatch;" vertex="1" parent="1">
          <mxGeometry x="1110" y="295" width="50" height="50" as="geometry" />
        </mxCell>
        <mxCell id="HJ6WZek75ZiEFssTKiRI-83" value="" style="rounded=0;whiteSpace=wrap;html=1;fillColor=#CCFF99;strokeColor=#CCFF99;strokeWidth=3;fillStyle=hatch;" vertex="1" parent="1">
          <mxGeometry x="1210" y="295" width="50" height="50" as="geometry" />
        </mxCell>
        <mxCell id="HJ6WZek75ZiEFssTKiRI-84" value="" style="rounded=0;whiteSpace=wrap;html=1;fillColor=#CCFF99;strokeColor=#CCFF99;strokeWidth=3;fillStyle=hatch;" vertex="1" parent="1">
          <mxGeometry x="1310" y="295" width="50" height="50" as="geometry" />
        </mxCell>
        <mxCell id="HJ6WZek75ZiEFssTKiRI-85" value="" style="rounded=0;whiteSpace=wrap;html=1;fillColor=#CCFF99;strokeColor=#CCFF99;strokeWidth=3;fillStyle=hatch;" vertex="1" parent="1">
          <mxGeometry x="1410" y="295" width="50" height="50" as="geometry" />
        </mxCell>
        <mxCell id="HJ6WZek75ZiEFssTKiRI-86" value="&lt;font style=&quot;color: rgb(255, 244, 244); background-color: light-dark(#ffffff, var(--ge-dark-color, #121212));&quot;&gt;Overview Dashboard&lt;/font&gt;" style="text;html=1;align=center;verticalAlign=middle;whiteSpace=wrap;rounded=0;fontSize=22;" vertex="1" parent="1">
          <mxGeometry x="-90" y="180" width="240" height="50" as="geometry" />
        </mxCell>
        <mxCell id="HJ6WZek75ZiEFssTKiRI-87" value="&lt;font style=&quot;color: rgb(255, 244, 244); background-color: light-dark(#ffffff, var(--ge-dark-color, #121212));&quot;&gt;Details Dashboard&lt;/font&gt;" style="text;html=1;align=center;verticalAlign=middle;whiteSpace=wrap;rounded=0;fontSize=22;" vertex="1" parent="1">
          <mxGeometry x="720" y="180" width="190" height="50" as="geometry" />
        </mxCell>
        <mxCell id="HJ6WZek75ZiEFssTKiRI-89" value="&lt;font style=&quot;font-size: 15px;&quot;&gt;Menu&lt;/font&gt;" style="text;html=1;align=center;verticalAlign=middle;whiteSpace=wrap;rounded=0;" vertex="1" parent="1">
          <mxGeometry x="-50" y="265" width="60" height="30" as="geometry" />
        </mxCell>
        <mxCell id="HJ6WZek75ZiEFssTKiRI-90" value="&lt;font style=&quot;font-size: 16px;&quot;&gt;Overview&lt;/font&gt;" style="text;html=1;align=center;verticalAlign=middle;whiteSpace=wrap;rounded=0;" vertex="1" parent="1">
          <mxGeometry x="110" y="400" width="150" height="30" as="geometry" />
        </mxCell>
        <mxCell id="HJ6WZek75ZiEFssTKiRI-91" value="&lt;font&gt;Geographics&lt;/font&gt;" style="text;html=1;align=center;verticalAlign=middle;whiteSpace=wrap;rounded=0;fontSize=15;" vertex="1" parent="1">
          <mxGeometry x="345" y="390" width="100" height="30" as="geometry" />
        </mxCell>
        <mxCell id="HJ6WZek75ZiEFssTKiRI-92" value="&lt;span&gt;Income Analysis&lt;/span&gt;" style="text;html=1;align=center;verticalAlign=middle;whiteSpace=wrap;rounded=0;fontSize=16;" vertex="1" parent="1">
          <mxGeometry x="340" y="550" width="140" height="30" as="geometry" />
        </mxCell>
        <mxCell id="HJ6WZek75ZiEFssTKiRI-94" value="&lt;font style=&quot;font-size: 15px;&quot;&gt;Menu&lt;/font&gt;" style="text;html=1;align=center;verticalAlign=middle;whiteSpace=wrap;rounded=0;" vertex="1" parent="1">
          <mxGeometry x="760" y="265" width="60" height="30" as="geometry" />
        </mxCell>
      </root>
    </mxGraphModel>
  </diagram>
</mxfile>
